HIERARCHY
ROOT Hips
{
	OFFSET	0.0000	0.0000	0.0000
	CHANNELS 6 Xposition Yposition Zposition Xrotation Yrotation Zrotation
	JOINT Spine
	{
		OFFSET	0.0000	9.5923	-5.1908
		CHANNELS 3 Xrotation Yrotation Zrotation
		JOINT Spine1
		{
			OFFSET	0.0000	8.7537	0.4573
			CHANNELS 3 Xrotation Yrotation Zrotation
			JOINT Spine2
			{
				OFFSET	0.0000	10.8317	-2.4110
				CHANNELS 3 Xrotation Yrotation Zrotation
				JOINT Neck
				{
					OFFSET	0.0000	24.4089	-0.5076
					CHANNELS 3 Xrotation Yrotation Zrotation
					JOINT Head
					{
						OFFSET	-0.0001	13.7840	3.7493
						CHANNELS 3 Xrotation Yrotation Zrotation
						End Site
						{
							OFFSET	0.0001	19.2597	0.5750
						}
					}
				}
				JOINT LeftShoulder
				{
					OFFSET	2.4643	23.5558	8.0704
					CHANNELS 3 Xrotation Yrotation Zrotation
					JOINT LeftArm
					{
						OFFSET	14.3966	3.3787	-5.4672
						CHANNELS 3 Xrotation Yrotation Zrotation
						JOINT LeftForeArm
						{
							OFFSET	30.5813	-0.1084	-0.2650
							CHANNELS 3 Xrotation Yrotation Zrotation
							JOINT LeftHand
							{
								OFFSET	25.5113	0.0740	-0.1528
								CHANNELS 3 Xrotation Yrotation Zrotation
								JOINT LeftHandIndex1
								{
									OFFSET	9.8875	0.8647	2.7462
									CHANNELS 3 Xrotation Yrotation Zrotation
									JOINT LeftHandIndex2
									{
										OFFSET	3.6984	-0.9018	0.6517
										CHANNELS 3 Xrotation Yrotation Zrotation
										JOINT LeftHandIndex3
										{
											OFFSET	2.5248	-0.6158	0.4450
											CHANNELS 3 Xrotation Yrotation Zrotation
											End Site
											{
												OFFSET	1.7966	-0.5363	0.2914
											}
										}
									}
								}
								JOINT LeftHandMiddle1
								{
									OFFSET	10.0350	0.9986	0.2391
									CHANNELS 3 Xrotation Yrotation Zrotation
									JOINT LeftHandMiddle2
									{
										OFFSET	4.5729	0.0128	-0.0270
										CHANNELS 3 Xrotation Yrotation Zrotation
										JOINT LeftHandMiddle3
										{
											OFFSET	2.5347	0.0078	-0.0154
											CHANNELS 3 Xrotation Yrotation Zrotation
											End Site
											{
												OFFSET	2.2767	-0.1608	0.0031
											}
										}
									}
								}
								JOINT LeftHandRing1
								{
									OFFSET	9.5103	0.6665	-2.2500
									CHANNELS 3 Xrotation Yrotation Zrotation
									JOINT LeftHandRing2
									{
										OFFSET	4.1494	-0.2101	-0.2598
										CHANNELS 3 Xrotation Yrotation Zrotation
										JOINT LeftHandRing3
										{
											OFFSET	2.3645	-0.1190	-0.1485
											CHANNELS 3 Xrotation Yrotation Zrotation
											End Site
											{
												OFFSET	2.0907	-0.2570	-0.0988
											}
										}
									}
								}
								JOINT LeftHandPinky1
								{
									OFFSET	8.8251	-0.6706	-3.8857
									CHANNELS 3 Xrotation Yrotation Zrotation
									JOINT LeftHandPinky2
									{
										OFFSET	2.5523	-0.5322	-0.7045
										CHANNELS 3 Xrotation Yrotation Zrotation
										JOINT LeftHandPinky3
										{
											OFFSET	1.8716	-0.3898	-0.5170
											CHANNELS 3 Xrotation Yrotation Zrotation
											End Site
											{
												OFFSET	1.6612	-0.4564	-0.3811
											}
										}
									}
								}
								JOINT LeftHandThumb1
								{
									OFFSET	2.0454	-1.5481	1.5506
									CHANNELS 3 Xrotation Yrotation Zrotation
									JOINT LeftHandThumb2
									{
										OFFSET	3.8081	-1.2506	2.8711
										CHANNELS 3 Xrotation Yrotation Zrotation
										JOINT LeftHandThumb3
										{
											OFFSET	2.5076	-0.8973	1.8066
											CHANNELS 3 Xrotation Yrotation Zrotation
											End Site
											{
												OFFSET	1.8440	-0.6348	1.2627
											}
										}
									}
								}
							}
						}
					}
				}
				JOINT RightShoulder
				{
					OFFSET	-2.4643	23.5558	8.0703
					CHANNELS 3 Xrotation Yrotation Zrotation
					JOINT RightArm
					{
						OFFSET	-14.3992	3.3793	-5.4681
						CHANNELS 3 Xrotation Yrotation Zrotation
						JOINT RightForeArm
						{
							OFFSET	-30.5813	-0.1084	-0.2650
							CHANNELS 3 Xrotation Yrotation Zrotation
							JOINT RightHand
							{
								OFFSET	-25.5113	0.0740	-0.1528
								CHANNELS 3 Xrotation Yrotation Zrotation
								JOINT RightHandIndex1
								{
									OFFSET	-9.8875	0.8648	2.7462
									CHANNELS 3 Xrotation Yrotation Zrotation
									JOINT RightHandIndex2
									{
										OFFSET	-3.6984	-0.9018	0.6517
										CHANNELS 3 Xrotation Yrotation Zrotation
										JOINT RightHandIndex3
										{
											OFFSET	-2.5248	-0.6160	0.4450
											CHANNELS 3 Xrotation Yrotation Zrotation
											End Site
											{
												OFFSET	-1.7966	-0.5363	0.2914
											}
										}
									}
								}
								JOINT RightHandMiddle1
								{
									OFFSET	-10.0350	0.9986	0.2391
									CHANNELS 3 Xrotation Yrotation Zrotation
									JOINT RightHandMiddle2
									{
										OFFSET	-4.5729	0.0128	-0.0270
										CHANNELS 3 Xrotation Yrotation Zrotation
										JOINT RightHandMiddle3
										{
											OFFSET	-2.5347	0.0078	-0.0155
											CHANNELS 3 Xrotation Yrotation Zrotation
											End Site
											{
												OFFSET	-2.2767	-0.1608	0.0031
											}
										}
									}
								}
								JOINT RightHandRing1
								{
									OFFSET	-9.5103	0.6665	-2.2500
									CHANNELS 3 Xrotation Yrotation Zrotation
									JOINT RightHandRing2
									{
										OFFSET	-4.1494	-0.2101	-0.2598
										CHANNELS 3 Xrotation Yrotation Zrotation
										JOINT RightHandRing3
										{
											OFFSET	-2.3646	-0.1190	-0.1485
											CHANNELS 3 Xrotation Yrotation Zrotation
											End Site
											{
												OFFSET	-2.0907	-0.2571	-0.0988
											}
										}
									}
								}
								JOINT RightHandPinky1
								{
									OFFSET	-8.8252	-0.6706	-3.8857
									CHANNELS 3 Xrotation Yrotation Zrotation
									JOINT RightHandPinky2
									{
										OFFSET	-2.5523	-0.5322	-0.7045
										CHANNELS 3 Xrotation Yrotation Zrotation
										JOINT RightHandPinky3
										{
											OFFSET	-1.8716	-0.3897	-0.5170
											CHANNELS 3 Xrotation Yrotation Zrotation
											End Site
											{
												OFFSET	-1.6612	-0.4564	-0.3811
											}
										}
									}
								}
								JOINT RightHandThumb1
								{
									OFFSET	-2.0454	-1.5480	1.5505
									CHANNELS 3 Xrotation Yrotation Zrotation
									JOINT RightHandThumb2
									{
										OFFSET	-3.8081	-1.2508	2.8712
										CHANNELS 3 Xrotation Yrotation Zrotation
										JOINT RightHandThumb3
										{
											OFFSET	-2.5075	-0.8972	1.8066
											CHANNELS 3 Xrotation Yrotation Zrotation
											End Site
											{
												OFFSET	-1.8440	-0.6348	1.2627
											}
										}
									}
								}
							}
						}
					}
				}
			}
		}
	}
	JOINT RightUpLeg
	{
		OFFSET	-10.2614	4.3360	-0.8458
		CHANNELS 3 Xrotation Yrotation Zrotation
		JOINT RightLeg
		{
			OFFSET	-0.8211	-44.6324	0.0000
			CHANNELS 3 Xrotation Yrotation Zrotation
			JOINT RightFoot
			{
				OFFSET	0.0000	-43.8263	0.0000
				CHANNELS 3 Xrotation Yrotation Zrotation
				JOINT RightToeBase
				{
					OFFSET	0.0000	-4.8169	10.0728
					CHANNELS 3 Xrotation Yrotation Zrotation
					End Site
					{
						OFFSET	0.0000	0.0000	6.7574
					}
				}
			}
		}
	}
	JOINT LeftUpLeg
	{
		OFFSET	10.2613	4.3363	-0.8458
		CHANNELS 3 Xrotation Yrotation Zrotation
		JOINT LeftLeg
		{
			OFFSET	0.8212	-44.6327	0.0000
			CHANNELS 3 Xrotation Yrotation Zrotation
			JOINT LeftFoot
			{
				OFFSET	0.0000	-43.8263	0.0000
				CHANNELS 3 Xrotation Yrotation Zrotation
				JOINT LeftToeBase
				{
					OFFSET	0.0000	-4.8169	10.0728
					CHANNELS 3 Xrotation Yrotation Zrotation
					End Site
					{
						OFFSET	0.0000	0.0000	6.7574
					}
				}
			}
		}
	}
}
MOTION
Frames:	8
Frame Time: 0.0333333000
	0.0000	91.4421	3.0005	0.000000	0.000000	0.000000	0.000000	0.000000	0.000000	0.000000	0.000000	0.000000	0.000000	0.000000	0.000000	0.000000	0.000000	0.000000	0.000000	0.000000	0.000000	0.000000	0.000000	0.000000	0.000000	0.000000	0.000000	0.000000	0.000000	0.000000	0.000000	0.000000	0.000000	0.000000	0.000000	0.000000	0.000000	0.000000	0.000000	0.000000	0.000000	0.000000	0.000000	0.000000	0.000000	0.000000	0.000000	0.000000	0.000000	0.000000	0.000000	0.000000	0.000000	0.000000	0.000000	0.000000	0.000000	0.000000	0.000000	0.000000	0.000000	0.000000	0.000000	0.000000	0.000000	0.000000	0.000000	0.000000	0.000000	0.000000	0.000000	0.000000	0.000000	0.000000	0.000000	0.000000	0.000000	0.000000	0.000000	0.000000	0.000000	0.000000	0.000000	0.000000	0.000000	0.000000	0.000000	0.000000	0.000000	0.000000	0.000000	0.000000	0.000000	0.000000	0.000000	0.000000	0.000000	0.000000	0.000000	0.000000	0.000000	0.000000	0.000000	0.000000	0.000000	0.000000	0.000000	0.000000	0.000000	0.000000	0.000000	0.000000	0.000000	0.000000	0.000000	0.000000	0.000000	0.000000	0.000000	0.000000	0.000000	0.000000	0.000000	0.000000	0.000000	0.000000	0.000000	0.000000	0.000000	0.000000	0.000000	0.000000	0.000000	0.000000	0.000000	0.000000	0.000000	0.000000	0.000000	0.000000	0.000000	0.000000	0.000000	0.000000	0.000000	0.000000	0.000000	0.000000	0.000000	0.000000	0.000000	0.000000	0.000000	0.000000	0.000000	0.000000	0.000000	0.000000	0.000000
	45.3416	94.7755	-52.8530	-5.494656	21.393670	1.426451	0.000000	-0.000001	0.000000	2.591046	1.284283	-0.167514	8.663128	4.237957	-0.786146	-0.021773	-0.243728	0.896025	2.490032	-0.052866	6.553500	0.000000	0.000000	-15.535010	3.060073	-14.976460	-56.171710	6.197979	-37.403590	0.564087	0.000003	-0.000001	0.000013	-0.000001	0.000001	-0.000005	-0.000002	-0.000004	-0.000004	0.000000	0.000002	0.000000	-0.000001	0.000001	-0.000005	-0.000002	-0.000004	-0.000004	0.000000	0.000002	0.000000	-0.000001	0.000001	-0.000005	-0.000002	-0.000004	-0.000004	0.000000	0.000002	0.000000	-0.000001	0.000001	-0.000005	-0.000002	-0.000004	-0.000004	0.000000	0.000002	0.000000	-0.000001	0.000001	-0.000005	-0.000002	-0.000004	-0.000004	0.000000	0.000002	0.000000	0.000000	0.000000	15.201180	16.205450	33.977780	54.554380	0.075267	26.486760	-0.009895	-0.000005	-0.000002	0.000000	0.000000	0.000000	0.000000	0.000000	0.000000	0.000000	0.000000	0.000000	0.000000	0.000000	0.000000	0.000000	0.000000	0.000000	0.000000	0.000000	0.000000	0.000000	0.000000	0.000000	0.000000	0.000000	0.000000	0.000000	0.000000	0.000000	0.000000	0.000000	0.000000	0.000000	0.000000	0.000000	0.000000	0.000000	0.000000	0.000000	0.000000	0.000000	0.000000	0.000000	0.000000	0.000000	0.000000	0.000000	0.000000	-4.815231	0.723799	0.473057	20.598860	-0.000001	-0.000001	1.796079	0.425732	0.195491	-0.000001	0.000002	0.000000	1.626418	0.499650	-0.405162	11.625730	0.000004	-0.000001	-1.036476	1.026629	0.502502	0.000000	0.000000	0.000000
	45.2620	94.7874	-52.7498	-5.528925	21.385610	1.461096	0.000000	0.000000	0.000000	2.606308	1.312771	-0.175518	8.700437	4.304718	-0.816263	-0.024141	-0.250506	0.920863	2.477380	-0.053330	6.532742	-0.000001	-0.000001	-15.528210	3.279902	-14.766540	-56.058750	5.241608	-36.256210	1.096605	0.000000	0.000000	0.000000	0.000000	0.000000	0.000000	0.000000	0.000000	0.000000	0.000000	0.000000	0.000000	0.000000	0.000000	0.000000	0.000000	0.000000	0.000000	0.000000	0.000000	0.000000	0.000000	0.000000	0.000000	0.000000	0.000000	0.000000	0.000000	0.000000	0.000000	0.000000	0.000000	0.000000	0.000000	0.000000	0.000000	0.000000	0.000000	0.000000	0.000000	0.000000	0.000000	0.000000	0.000000	0.000000	0.000000	0.000000	0.000000	-0.000001	-0.000001	15.172500	16.883020	34.354350	54.019600	0.074023	26.749790	-0.010463	0.000000	0.000000	0.000000	0.000000	0.000000	0.000000	0.000000	0.000000	0.000000	0.000000	0.000000	0.000000	0.000000	0.000000	0.000000	0.000000	0.000000	0.000000	0.000000	0.000000	0.000000	0.000000	0.000000	0.000000	0.000000	0.000000	0.000000	0.000000	0.000000	0.000000	0.000000	0.000000	0.000000	0.000000	0.000000	0.000000	0.000000	0.000000	0.000000	0.000000	0.000000	0.000000	0.000000	0.000000	0.000000	0.000000	0.000000	0.000000	-4.343349	0.946191	0.474906	19.916870	-0.000001	0.000000	1.511711	0.616531	0.285026	-0.000001	-0.000002	0.000000	1.793184	0.541525	-0.385703	11.497740	-0.000003	0.000001	-0.882503	1.069192	0.521613	0.000000	0.000000	0.000000
	45.1879	94.8061	-52.6520	-5.548526	21.405860	1.496687	0.000000	0.000000	0.000000	2.613718	1.325786	-0.175270	8.738809	4.372082	-0.831221	-0.037045	-0.261516	0.960938	2.258929	-0.062754	6.237557	0.000001	0.000002	-15.514200	4.137624	-13.635110	-56.108930	3.299135	-36.140900	0.881757	0.000000	0.000000	-0.000002	0.000000	0.000000	-0.000002	0.000000	0.000000	-0.000002	0.000000	0.000000	-0.000002	0.000000	0.000000	-0.000002	0.000000	0.000000	-0.000002	0.000000	0.000000	-0.000002	0.000000	0.000000	-0.000002	0.000000	0.000000	-0.000002	0.000000	0.000000	-0.000002	0.000000	0.000000	-0.000002	0.000000	0.000000	-0.000002	0.000000	0.000000	-0.000002	0.000000	0.000000	-0.000002	0.000000	0.000000	-0.000002	0.000000	0.000000	-0.000002	0.000001	0.000002	15.099460	17.555760	34.764910	53.523600	0.074858	26.796260	-0.010456	0.000002	-0.000002	0.000002	0.000000	0.000000	0.000000	0.000000	0.000000	0.000000	0.000000	0.000000	0.000000	0.000000	0.000000	0.000000	0.000000	0.000000	0.000000	0.000000	0.000000	0.000000	0.000000	0.000000	0.000000	0.000000	0.000000	0.000000	0.000000	0.000000	0.000000	0.000000	0.000000	0.000000	0.000000	0.000000	0.000000	0.000000	0.000000	0.000000	0.000000	0.000000	0.000000	0.000000	0.000000	0.000000	0.000000	0.000000	0.000000	-3.801806	1.176751	0.436894	19.193400	0.000000	0.000000	1.157775	0.802423	0.374091	0.000000	0.000002	0.000000	1.928318	0.577783	-0.369316	11.345330	0.000000	0.000000	-0.768432	1.047975	0.509723	0.000000	0.000002	0.000000
	45.1593	94.8369	-52.5834	-5.552884	21.456160	1.541261	0.000000	0.000000	0.000000	2.621217	1.338828	-0.174376	8.779375	4.440869	-0.829759	-0.057675	-0.269673	0.990235	1.972008	-0.073537	5.855557	0.000000	0.000000	-15.504640	6.150141	-10.856150	-56.441970	1.576592	-38.494740	0.500372	0.000000	0.000000	0.000000	0.000000	0.000000	0.000000	0.000000	0.000000	0.000000	0.000000	0.000000	0.000000	0.000000	0.000000	0.000000	0.000000	0.000000	0.000000	0.000000	0.000000	0.000000	0.000000	0.000000	0.000000	0.000000	0.000000	0.000000	0.000000	0.000000	0.000000	0.000000	0.000000	0.000000	0.000000	0.000000	0.000000	0.000000	0.000000	0.000000	0.000000	0.000000	0.000000	0.000000	0.000000	0.000000	0.000000	0.000000	0.000000	0.000000	0.000001	15.060590	18.194030	35.250470	53.044370	0.075704	26.575480	-0.010041	0.000000	0.000000	0.000000	0.000000	0.000000	0.000000	0.000000	0.000000	0.000000	0.000000	0.000000	0.000000	0.000000	0.000000	0.000000	0.000000	0.000000	0.000000	0.000000	0.000000	0.000000	0.000000	0.000000	0.000000	0.000000	0.000000	0.000000	0.000000	0.000000	0.000000	0.000000	0.000000	0.000000	0.000000	0.000000	0.000000	0.000000	0.000000	0.000000	0.000000	0.000000	0.000000	0.000000	0.000000	0.000000	0.000000	0.000000	0.000000	-3.207676	1.413214	0.314615	18.394430	0.000000	-0.000001	0.900016	1.107822	0.519135	-0.000002	-0.000001	0.000000	2.037618	0.607682	-0.393657	11.166750	-0.000003	0.000001	-0.492167	0.950416	0.459383	0.000001	0.000000	0.000000
	45.1242	94.8794	-52.5027	-5.557765	21.505740	1.568329	0.000000	0.000000	0.000000	2.639058	1.368004	-0.163730	8.823235	4.511651	-0.810857	-0.067346	-0.271657	0.997198	1.794938	-0.079304	5.623315	0.000001	0.000000	-15.492690	9.127708	-6.489774	-56.882280	0.607770	-42.905180	0.220861	-0.000003	-0.000002	0.000000	0.000002	0.000000	0.000004	-0.000003	-0.000002	0.000000	0.000002	0.000000	0.000004	0.000002	0.000000	0.000004	-0.000003	-0.000002	0.000000	0.000002	0.000000	0.000004	0.000002	0.000000	0.000004	-0.000003	-0.000002	0.000000	0.000002	0.000000	0.000004	0.000002	0.000000	0.000004	-0.000003	-0.000002	0.000000	0.000002	0.000000	0.000004	0.000002	0.000000	0.000004	-0.000003	-0.000002	0.000000	0.000002	0.000000	0.000004	0.000001	0.000000	15.007640	18.832390	35.731470	52.593090	0.076465	26.444240	-0.009754	0.000000	0.000000	0.000000	0.000000	0.000000	0.000000	0.000000	0.000000	0.000000	0.000000	0.000000	0.000000	0.000000	0.000000	0.000000	0.000000	0.000000	0.000000	0.000000	0.000000	0.000000	0.000000	0.000000	0.000000	0.000000	0.000000	0.000000	0.000000	0.000000	0.000000	0.000000	0.000000	0.000000	0.000000	0.000000	0.000000	0.000000	0.000000	0.000000	0.000000	0.000000	0.000000	0.000000	0.000000	0.000000	0.000000	0.000000	0.000000	-2.465027	1.645929	0.204424	17.307740	-0.000001	0.000000	0.879897	1.583384	0.741858	0.000000	0.000005	0.000000	2.210979	0.632959	-0.396342	10.868020	-0.000001	0.000000	0.060639	0.858682	0.409921	0.000000	0.000001	0.000000
	44.9734	94.9146	-52.3509	-5.574868	21.519720	1.567094	0.000000	0.000000	0.000000	2.658578	1.397747	-0.143474	8.869976	4.584159	-0.776156	-0.108792	-0.277003	1.015425	1.768316	-0.080221	5.601151	0.000000	0.000000	-15.454590	12.072420	-1.934644	-57.423070	0.261262	-47.521720	0.097987	0.000002	0.000000	0.000001	0.000001	0.000000	0.000001	0.000001	0.000000	0.000001	0.000001	0.000000	0.000001	0.000001	0.000000	0.000001	0.000001	0.000000	0.000001	0.000001	0.000000	0.000001	0.000001	0.000000	0.000001	0.000001	0.000000	0.000001	0.000001	0.000000	0.000001	0.000001	0.000000	0.000001	0.000001	0.000000	0.000001	0.000001	0.000000	0.000001	0.000001	0.000000	0.000001	0.000001	0.000000	0.000001	0.000001	0.000000	0.000001	0.000000	0.000000	14.945990	19.470960	36.198660	52.190990	0.077744	26.742470	-0.010086	0.000000	0.000000	0.000000	-0.000002	0.000002	-0.000002	0.000002	-0.000002	0.000002	0.000000	0.000000	0.000000	-0.000002	0.000002	-0.000002	0.000002	-0.000002	0.000002	0.000000	0.000000	0.000000	-0.000002	0.000002	-0.000002	0.000002	-0.000002	0.000002	0.000000	0.000000	0.000000	-0.000002	0.000002	-0.000002	0.000002	-0.000002	0.000002	0.000000	0.000000	0.000000	-0.000002	0.000002	-0.000002	0.000002	-0.000002	0.000002	0.000000	0.000000	0.000000	-1.597052	1.868505	0.236939	16.031810	0.000000	0.000000	0.912058	2.132798	0.998480	-0.000001	0.000000	0.000000	2.394765	0.651574	-0.285592	10.646280	0.000000	0.000000	0.532762	0.849736	0.401487	-0.000002	0.000000	0.000000
	44.6353	94.9286	-52.1059	-5.591332	21.480490	1.593411	0.000000	0.000000	0.000000	2.669234	1.412796	-0.128680	8.919138	4.657876	-0.727488	-0.133925	-0.278291	1.019287	1.767464	-0.080493	5.621439	0.000000	0.000000	-15.430740	13.970930	0.786585	-58.199830	0.198998	-50.869880	0.076609	0.000000	-0.000002	-0.000002	-0.000001	0.000000	-0.000001	-0.000001	0.000000	-0.000001	-0.000001	0.000000	-0.000001	-0.000001	0.000000	-0.000001	-0.000001	0.000000	-0.000001	-0.000001	0.000000	-0.000001	-0.000001	0.000000	-0.000001	-0.000001	0.000000	-0.000001	-0.000001	0.000000	-0.000001	-0.000001	0.000000	-0.000001	-0.000001	0.000000	-0.000001	-0.000001	0.000000	-0.000001	-0.000001	0.000000	-0.000001	-0.000001	0.000000	-0.000001	-0.000001	0.000000	-0.000001	0.000000	0.000000	14.878580	20.013830	36.860690	51.866420	0.078232	27.216340	-0.010770	0.000002	-0.000002	0.000002	0.000000	0.000000	0.000000	0.000000	0.000000	0.000000	0.000000	0.000000	0.000000	0.000000	0.000000	0.000000	0.000000	0.000000	0.000000	0.000000	0.000000	0.000000	0.000000	0.000000	0.000000	0.000000	0.000000	0.000000	0.000000	0.000000	0.000000	0.000000	0.000000	0.000000	0.000000	0.000000	0.000000	0.000000	0.000000	0.000000	0.000000	0.000000	0.000000	0.000000	0.000000	0.000000	0.000000	0.000000	0.000000	-0.800207	2.082638	0.414991	14.935460	0.000000	0.000000	0.661988	2.426659	1.143570	-0.000001	0.000000	0.000000	2.407609	0.661448	-0.063970	10.821010	0.000000	0.000000	0.635863	0.848975	0.400192	0.000001	0.000000	0.000000
